<?xml version="1.0" encoding="iso-8859-1"?>
<!-- Generator: Adobe Illustrator 19.0.0, SVG Export Plug-In . SVG Version: 6.00 Build 0)  -->
<svg version="1.1" id="Capa_1" xmlns="http://www.w3.org/2000/svg" xmlns:xlink="http://www.w3.org/1999/xlink" x="0px" y="0px"
	 viewBox="0 0 512 512" style="enable-background:new 0 0 512 512;" xml:space="preserve">
<path style="fill:#D8FB93;" d="M502,353.436L256,502L10,353.436l246-148.564L502,353.436z"/>
<g>
	<polygon style="fill:#A0E557;" points="379,279.154 256,353.436 379,427.718 502,353.436 	"/>
	<polygon style="fill:#A0E557;" points="133,279.154 10,353.436 133,427.718 256,353.436 	"/>
</g>
<g>
	<path style="fill:#62CD4D;" d="M134.584,341.921c0,0,23.933-15.585,23.933-44.891s-23.933-44.594-23.933-44.594
		s-23.933,15.288-23.933,44.594C110.651,326.335,134.584,341.921,134.584,341.921z"/>
	<path style="fill:#62CD4D;" d="M377.056,341.921c0,0,23.933-15.585,23.933-44.891s-23.933-44.594-23.933-44.594
		s-23.933,15.288-23.933,44.594C353.123,326.335,377.056,341.921,377.056,341.921z"/>
	<path style="fill:#62CD4D;" d="M256.306,263.001c0,0,23.933-15.585,23.933-44.891s-23.933-44.594-23.933-44.594
		s-23.933,15.288-23.933,44.594S256.306,263.001,256.306,263.001z"/>
	<path style="fill:#62CD4D;" d="M256,431.406c0,0,23.933-15.585,23.933-44.891S256,341.921,256,341.921
		s-23.933,15.288-23.933,44.594S256,431.406,256,431.406z"/>
</g>
<path style="fill:#72D8FF;" d="M381.805,32.352v22.03c0,12.344-10.007,22.352-22.352,22.352h-98.907
	c-12.344,0-22.352-10.007-22.352-22.352v-22.03c0-12.344,10.007-22.352,22.352-22.352l0,0h98.907l0,0
	C371.798,10,381.805,20.007,381.805,32.352z"/>
<path style="fill:#4DBAF6;" d="M346.488,111.512h-72.976l-13.659-34.778h100.293L346.488,111.512z"/>
<path d="M507.169,344.876l-35.675-21.545c-4.726-2.854-10.874-1.336-13.729,3.391c-2.855,4.728-1.337,10.875,3.391,13.73
	l21.5,12.984l-103.675,62.611l-95.994-57.996c-1.266-2.44-2.633-4.706-4.051-6.785l65.883-39.787
	c5.972,24.974,25.794,38.178,26.781,38.822c1.659,1.08,3.558,1.62,5.457,1.62s3.798-0.54,5.457-1.62
	c1.163-0.758,28.476-18.939,28.476-53.271c0-34.389-27.384-52.276-28.55-53.021c-3.282-2.096-7.484-2.096-10.767,0
	c-0.525,0.336-6.376,4.165-12.644,11.403l-68.955-41.643c-2.163-31.546-27.269-47.968-28.385-48.68
	c-3.282-2.096-7.484-2.096-10.767,0c-1.111,0.71-26.022,17.006-28.357,48.307c-0.065,0.038-0.134,0.067-0.198,0.106l-69.633,42.053
	c-6.315-7.331-12.238-11.208-12.767-11.546c-3.282-2.096-7.484-2.096-10.767,0c-1.04,0.665-22.915,14.975-27.64,42.451L4.83,344.877
	c-2.997,1.811-4.83,5.058-4.83,8.56s1.833,6.75,4.831,8.561l246,148.563C252.42,511.521,254.21,512,256,512
	c1.79,0,3.58-0.479,5.169-1.439l246-148.563c2.998-1.811,4.831-5.059,4.831-8.561S510.168,346.688,507.169,344.876z
	 M255.998,354.825c5.735,5.579,13.936,16.254,13.936,31.689c0,15.428-8.18,26.218-13.934,31.899
	c-5.735-5.669-13.933-16.471-13.933-31.899C242.067,371.071,250.276,360.393,255.998,354.825z M377.054,265.34
	c5.735,5.579,13.936,16.254,13.936,31.689c0,15.428-8.18,26.218-13.934,31.899c-5.735-5.669-13.933-16.471-13.933-31.899
	C363.124,281.586,371.333,270.907,377.054,265.34z M256.304,186.42c5.735,5.579,13.936,16.254,13.936,31.689
	c0,15.428-8.18,26.218-13.934,31.899c-5.735-5.669-13.933-16.471-13.933-31.899C242.373,202.666,250.583,191.987,256.304,186.42z
	 M134.582,265.34c5.735,5.579,13.936,16.254,13.936,31.689c0,15.428-8.18,26.218-13.934,31.899
	c-5.735-5.669-13.933-16.471-13.933-31.899C120.651,281.586,128.861,270.907,134.582,265.34z M29.344,353.437l72.585-43.835
	c5.396,26.19,26.187,40.04,27.198,40.699c1.659,1.08,3.558,1.62,5.457,1.62s3.798-0.54,5.457-1.62
	c1.163-0.758,28.476-18.939,28.476-53.271c0-9.44-2.07-17.629-5.089-24.569l61.385-37.072c6.72,23.142,25.086,35.374,26.035,35.992
	c1.659,1.08,3.558,1.62,5.457,1.62c1.899,0,3.798-0.54,5.457-1.62c0.945-0.616,19.154-12.735,25.948-35.674l60.573,36.581
	c-2.14,4.881-3.799,10.391-4.609,16.517l-78.01,47.111c-0.182,0.11-0.351,0.234-0.523,0.353c-2.085-1.685-3.512-2.618-3.759-2.776
	c-3.282-2.096-7.484-2.096-10.767,0c-0.245,0.157-1.662,1.084-3.733,2.755l-18.901-11.414c-4.726-2.854-10.875-1.336-13.729,3.391
	c-2.855,4.728-1.337,10.875,3.391,13.73l15.419,9.312c-1.418,2.079-2.785,4.344-4.051,6.785l-96.014,57.984L29.344,353.437z
	 M256,490.318l-103.656-62.6l69.746-42.12c-0.004,0.308-0.023,0.606-0.023,0.917c0,34.332,27.313,52.514,28.476,53.271
	c1.659,1.08,3.558,1.62,5.457,1.62c1.899,0,3.798-0.54,5.457-1.62c1.163-0.758,28.476-18.939,28.476-53.271
	c0-0.309-0.018-0.606-0.022-0.912l69.728,42.127L256,490.318z"/>
<path d="M193.49,305.68c-2.64,0-5.21,1.07-7.07,2.93s-2.93,4.44-2.93,7.07s1.07,5.21,2.93,7.07c1.86,1.87,4.43,2.93,7.07,2.93
	c2.63,0,5.21-1.06,7.07-2.93c1.86-1.86,2.93-4.431,2.93-7.07c0-2.63-1.07-5.21-2.93-7.07C198.7,306.75,196.12,305.68,193.49,305.68z
	"/>
<path d="M118,20h32.146v27h-11.073c-5.523,0-10,4.478-10,10s4.477,10,10,10h91.685c2.943,6.921,8.233,12.607,14.861,16.07
	l-36.414,25.885c-2.639,1.876-4.206,4.913-4.206,8.15V164c0,5.522,4.477,10,10,10s10-4.478,10-10v-41.735l32.827-23.335
	l6.377,16.237c1.503,3.827,5.196,6.345,9.308,6.345h72.976c4.112,0,7.805-2.518,9.308-6.345l6.377-16.237L395,122.265V164
	c0,5.522,4.477,10,10,10s10-4.478,10-10v-46.896c0-3.237-1.567-6.274-4.206-8.15L374.38,83.07
	c6.628-3.463,11.918-9.149,14.861-16.07h91.685c5.523,0,10-4.478,10-10s-4.477-10-10-10h-11.073V20H502c5.523,0,10-4.478,10-10
	s-4.477-10-10-10h-42.146h-42.146c-5.523,0-10,4.478-10,10s4.477,10,10,10h32.146v27h-58.049V32.352
	C391.805,14.513,377.292,0,359.453,0h-98.906c-17.839,0-32.352,14.513-32.352,32.352V47h-58.049V20h32.146c5.523,0,10-4.478,10-10
	s-4.477-10-10-10h-42.146H118c-5.523,0-10,4.478-10,10S112.477,20,118,20z M339.671,101.512h-59.343l-5.704-14.522l0.36-0.256h70.03
	l0.36,0.256L339.671,101.512z M248.195,32.352c0-6.811,5.541-12.352,12.352-12.352h98.906c6.811,0,12.352,5.541,12.352,12.352v22.03
	c0,6.811-5.541,12.352-12.352,12.352h-98.906c-6.811,0-12.352-5.541-12.352-12.352L248.195,32.352L248.195,32.352z"/>
<path d="M96.619,211.084c2.559,0,5.119-0.977,7.071-2.929c3.905-3.905,3.905-10.237,0-14.143c-18.813-18.813-49.425-18.813-68.237,0
	c-3.905,3.905-3.906,10.237,0,14.143c3.906,3.904,10.238,3.905,14.142,0c11.016-11.016,28.938-11.016,39.954,0
	C91.501,210.107,94.06,211.084,96.619,211.084z"/>
<path d="M15.477,184.037c2.559,0,5.119-0.977,7.071-2.929c12.561-12.561,29.261-19.479,47.024-19.479s34.463,6.918,47.023,19.479
	c3.907,3.904,10.238,3.905,14.142,0c3.905-3.905,3.906-10.237,0-14.143c-16.337-16.337-38.06-25.335-61.165-25.335
	s-44.828,8.998-61.167,25.336c-3.905,3.905-3.905,10.237,0,14.143C10.358,183.061,12.917,184.037,15.477,184.037z"/>
<path d="M62.5,221.24c-1.86,1.859-2.93,4.439-2.93,7.069s1.07,5.21,2.93,7.07c1.87,1.86,4.44,2.93,7.07,2.93s5.21-1.069,7.07-2.93
	c1.86-1.86,2.93-4.44,2.93-7.07s-1.07-5.21-2.93-7.069c-1.86-1.86-4.43-2.931-7.07-2.931C66.94,218.31,64.36,219.38,62.5,221.24z"/>
<g>
</g>
<g>
</g>
<g>
</g>
<g>
</g>
<g>
</g>
<g>
</g>
<g>
</g>
<g>
</g>
<g>
</g>
<g>
</g>
<g>
</g>
<g>
</g>
<g>
</g>
<g>
</g>
<g>
</g>
</svg>
