<svg height="496pt" viewBox="0 0 496 496.00271" width="496pt" xmlns="http://www.w3.org/2000/svg"><path d="m67.3125 316.691406 4.6875-4.6875 4.6875 4.6875c7.242188 7.238282 11.3125 17.0625 11.3125 27.3125 0 10.246094-4.070312 20.070313-11.3125 27.3125l-4.6875 4.6875-4.6875-4.6875c-7.238281-7.242187-11.3125-17.066406-11.3125-27.3125 0-10.25 4.074219-20.074218 11.3125-27.3125zm0 0" fill="#a37868"/><path d="m56 344.003906c0 8.488282 2.929688 16.589844 8 23.269532 5.074219-6.679688 8-14.78125 8-23.269532 0-8.488281-2.925781-16.59375-8-23.273437-5.070312 6.679687-8 14.785156-8 23.273437zm0 0" fill="#d9a08b"/><path d="m243.3125 316.691406 4.6875-4.6875 4.6875 4.6875c7.242188 7.238282 11.3125 17.0625 11.3125 27.3125 0 10.246094-4.070312 20.070313-11.3125 27.3125l-4.6875 4.6875-4.6875-4.6875c-7.238281-7.242187-11.3125-17.066406-11.3125-27.3125 0-10.25 4.074219-20.074218 11.3125-27.3125zm0 0" fill="#a37868"/><path d="m232 344.003906c0 8.488282 2.929688 16.589844 8 23.269532 5.074219-6.679688 8-14.78125 8-23.269532 0-8.488281-2.925781-16.59375-8-23.273437-5.070312 6.679687-8 14.785156-8 23.273437zm0 0" fill="#d9a08b"/><path d="m419.3125 316.691406 4.6875-4.6875 4.6875 4.6875c7.242188 7.238282 11.3125 17.0625 11.3125 27.3125 0 10.246094-4.070312 20.070313-11.3125 27.3125l-4.6875 4.6875-4.6875-4.6875c-7.238281-7.242187-11.3125-17.066406-11.3125-27.3125 0-10.25 4.074219-20.074218 11.3125-27.3125zm0 0" fill="#a37868"/><path d="m408 344.003906c0 8.488282 2.929688 16.589844 8 23.269532 5.074219-6.679688 8-14.78125 8-23.269532 0-8.488281-2.925781-16.59375-8-23.273437-5.070312 6.679687-8 14.785156-8 23.273437zm0 0" fill="#d9a08b"/><path d="m360 401.378906v-9.375h9.378906c14.488282 0 28.382813 5.75 38.621094 16 10.25 10.246094 16 24.136719 16 38.621094v9.378906h-9.375c-14.488281 0-28.382812-5.753906-38.625-16-10.246094-10.25-16-24.136718-16-38.625zm0 0" fill="#2b8838"/><path d="m400 446.625c0-14.484375-5.75-28.382812-16-38.621094-6.710938-6.714844-15.007812-11.457031-24-13.953125v7.328125c0 14.488282 5.753906 28.382813 16 38.625 6.714844 6.710938 15.007812 11.453125 24 13.949219zm0 0" fill="#39b54a"/><path d="m184 401.378906v-9.375h9.378906c14.488282 0 28.382813 5.75 38.621094 16 10.25 10.246094 16 24.136719 16 38.621094v9.378906h-9.375c-14.488281 0-28.382812-5.753906-38.625-16-10.246094-10.25-16-24.136718-16-38.625zm0 0" fill="#2b8838"/><path d="m224 446.625c0-14.484375-5.75-28.382812-16-38.621094-6.710938-6.714844-15.007812-11.457031-24-13.953125v7.328125c0 14.488282 5.753906 28.382813 16 38.625 6.714844 6.710938 15.007812 11.453125 24 13.949219zm0 0" fill="#39b54a"/><path d="m8 401.378906v-9.375h9.378906c14.488282 0 28.375 5.75 38.621094 16 10.25 10.246094 16 24.136719 16 38.621094v9.378906h-9.375c-14.488281 0-28.375-5.753906-38.625-16-10.246094-10.25-16-24.136718-16-38.625zm0 0" fill="#2b8838"/><path d="m48 446.625c0-14.484375-5.75-28.375-16-38.621094-6.710938-6.714844-15.007812-11.457031-24-13.953125v7.328125c0 14.488282 5.753906 28.375 16 38.625 6.714844 6.710938 15.007812 11.453125 24 13.949219zm0 0" fill="#39b54a"/><path d="m72 446.625v9.378906h9.378906c14.488282 0 28.382813-5.753906 38.621094-16 10.25-10.25 16-24.136718 16-38.625v-9.375h-9.375c-14.488281 0-28.382812 5.75-38.625 16-10.246094 10.246094-16 24.136719-16 38.621094zm0 0" fill="#2b8838"/><path d="m88 408.003906c-10.246094 10.246094-16 24.136719-16 38.621094v7.328125c8.992188-2.503906 17.289062-7.238281 24-13.949219 10.25-10.25 16-24.136718 16-38.625v-7.328125c-8.992188 2.496094-17.285156 7.238281-24 13.953125zm0 0" fill="#39b54a"/><path d="m248 446.625v9.378906h9.378906c14.488282 0 28.382813-5.753906 38.621094-16 10.25-10.25 16-24.136718 16-38.625v-9.375h-9.375c-14.488281 0-28.382812 5.75-38.625 16-10.246094 10.246094-16 24.136719-16 38.621094zm0 0" fill="#2b8838"/><path d="m264 408.003906c-10.246094 10.246094-16 24.136719-16 38.621094v7.328125c8.992188-2.503906 17.289062-7.238281 24-13.949219 10.25-10.25 16-24.136718 16-38.625v-7.328125c-8.992188 2.496094-17.285156 7.238281-24 13.953125zm0 0" fill="#39b54a"/><path d="m424 446.625v9.378906h9.378906c14.488282 0 28.382813-5.753906 38.621094-16 10.25-10.25 16-24.136718 16-38.625v-9.375h-9.375c-14.488281 0-28.382812 5.75-38.625 16-10.246094 10.246094-16 24.136719-16 38.621094zm0 0" fill="#2b8838"/><path d="m440 408.003906c-10.246094 10.246094-16 24.136719-16 38.621094v7.328125c8.992188-2.503906 17.289062-7.238281 24-13.949219 10.25-10.25 16-24.136718 16-38.625v-7.328125c-8.992188 2.496094-17.285156 7.238281-24 13.953125zm0 0" fill="#39b54a"/><path d="m8 136.003906h480v152h-480zm0 0" fill="#39b54a"/><path d="m8 136.003906h320l-160-128zm0 0" fill="#69952f"/><path d="m8 136.003906h288l-144-115.203125zm0 0" fill="#8cc63f"/><path d="m168 136.003906h320l-160-128zm0 0" fill="#69952f"/><path d="m168 136.003906h288l-144-115.203125zm0 0" fill="#8cc63f"/><path d="m384 52.800781-56-44.796875-56 44.796875v27.203125c0 8.839844 7.160156 16 16 16s16-7.160156 16-16 7.160156-16 16-16 16 7.160156 16 16c0 13.253906 10.746094 24 24 24 13.257812 0 24-10.746094 24-24zm0 0" fill="#999"/><path d="m272 52.800781v27.203125c0 4.03125 1.546875 7.664063 4 10.480469 2.457031-2.816406 4-6.449219 4-10.480469 0-8.839844 7.160156-16 16-16 4.808594 0 9.066406 2.160156 12 5.519532 2.9375-3.359376 7.191406-5.519532 12-5.519532 8.839844 0 16 7.160156 16 16 0 8.863282 4.855469 16.511719 12 20.671875 7.144531-4.160156 12-11.808593 12-20.671875v-27.203125l-44-35.199219zm0 0" fill="#b3b3b3"/><path d="m488 144.003906h-480c-3.398438 0-6.421875-2.144531-7.542969-5.351562-1.121093-3.210938-.105469-6.777344 2.542969-8.898438l160-128c2.984375-2.390625 7.226562-2.328125 10.160156.128906l72.921875 61.414063 76.917969-61.535156c2.921875-2.335938 7.082031-2.335938 10 0l160 128c2.648438 2.121093 3.671875 5.6875 2.546875 8.898437-1.128906 3.207032-4.144531 5.34375-7.546875 5.34375zm-297.191406-16h274.394531l-137.203125-109.753906zm-160 0h134.394531l68.148437-54.511718-65.476562-55.136719zm0 0"/><path d="m240 136.003906h16v144h-16zm0 0"/><path d="m50.34375 274.34375 144-144 11.3125 11.316406-144 144zm0 0"/><path d="m290.339844 141.660156 11.316406-11.3125 143.996094 144-11.3125 11.3125zm0 0"/><path d="m155.4375 276.871094 61.226562-143.992188 14.714844 6.257813-61.222656 143.992187zm0 0"/><path d="m264.644531 139.113281 14.71875-6.253906 61.207031 143.992187-14.71875 6.257813zm0 0"/><path d="m339.566406 142.636719 8.875-13.3125 144.007813 95.996093-8.875 13.316407zm0 0"/><path d="m3.5625 225.355469 144.003906-95.996094 8.875 13.3125-144.003906 96zm0 0"/><path d="m0 176.003906h496v16h-496zm0 0"/><path d="m8 224.003906h488v16h-488zm0 0"/><path d="m0 224.003906h496v16h-496zm0 0"/><path d="m0 272.003906h496v16h-496zm0 0"/><path d="m0 272.003906h496v16h-496zm0 0"/><path d="m424 464.003906h-9.375c-16.734375 0-32.464844-6.511718-44.28125-18.34375-11.832031-11.832031-18.34375-27.5625-18.34375-44.289062v-9.367188c0-4.417968 3.578125-8 8-8h9.378906c16.734375 0 32.460938 6.511719 44.277344 18.34375 11.832031 11.832032 18.34375 27.558594 18.34375 44.285156v9.371094c0 4.414063-3.574219 8-8 8zm-56-64v1.367188c0 12.457031 4.847656 24.167968 13.65625 32.976562s20.511719 13.65625 32.96875 13.65625h1.375v-1.371094c0-12.453124-4.847656-24.167968-13.65625-32.972656-8.804688-8.808594-20.511719-13.65625-32.964844-13.65625zm0 0"/><path d="m433.378906 464.003906h-9.378906c-4.421875 0-8-3.585937-8-8v-9.371094c0-16.726562 6.511719-32.453124 18.34375-44.285156 11.824219-11.832031 27.546875-18.34375 44.28125-18.34375h9.375c4.425781 0 8 3.582032 8 8v9.367188c0 16.726562-6.511719 32.457031-18.34375 44.289062-11.824219 11.832032-27.542969 18.34375-44.277344 18.34375zm-1.378906-16h1.378906c12.453125 0 24.167969-4.847656 32.964844-13.65625 8.808594-8.808594 13.65625-20.519531 13.65625-32.976562v-1.367188h-1.375c-12.457031 0-24.167969 4.847656-32.96875 13.65625-8.808594 8.804688-13.65625 20.519532-13.65625 32.972656zm0 0"/><path d="m416 376.003906h16v120h-16zm0 0"/><path d="m424 384.003906c-2.046875 0-4.09375-.785156-5.65625-2.34375l-4.6875-4.6875c-8.808594-8.800781-13.65625-20.515625-13.65625-32.96875 0-12.457031 4.847656-24.167968 13.65625-32.96875l4.6875-4.6875c3.128906-3.128906 8.1875-3.128906 11.3125 0l4.6875 4.6875c8.808594 8.800782 13.65625 20.511719 13.65625 32.96875 0 12.453125-4.847656 24.167969-13.65625 32.96875l-4.6875 4.6875c-1.558594 1.558594-3.605469 2.34375-5.65625 2.34375zm0-60.640625c-5.167969 5.65625-8 12.925781-8 20.640625 0 7.710938 2.832031 14.992188 8 20.640625 5.167969-5.65625 8-12.929687 8-20.640625 0-7.714844-2.832031-14.992187-8-20.640625zm0 0"/><path d="m248 464.003906h-9.375c-16.734375 0-32.464844-6.511718-44.28125-18.34375-11.832031-11.832031-18.34375-27.5625-18.34375-44.289062v-9.367188c0-4.417968 3.578125-8 8-8h9.378906c16.734375 0 32.460938 6.511719 44.277344 18.34375 11.832031 11.832032 18.34375 27.558594 18.34375 44.285156v9.371094c0 4.414063-3.574219 8-8 8zm-56-64v1.367188c0 12.457031 4.847656 24.167968 13.65625 32.976562s20.511719 13.65625 32.96875 13.65625h1.375v-1.371094c0-12.453124-4.847656-24.167968-13.65625-32.972656-8.804688-8.808594-20.511719-13.65625-32.964844-13.65625zm0 0"/><path d="m257.378906 464.003906h-9.378906c-4.421875 0-8-3.585937-8-8v-9.371094c0-16.726562 6.511719-32.453124 18.34375-44.285156 11.824219-11.832031 27.546875-18.34375 44.28125-18.34375h9.375c4.425781 0 8 3.582032 8 8v9.367188c0 16.726562-6.511719 32.457031-18.34375 44.289062-11.824219 11.832032-27.542969 18.34375-44.277344 18.34375zm-1.378906-16h1.378906c12.453125 0 24.167969-4.847656 32.964844-13.65625 8.808594-8.808594 13.65625-20.519531 13.65625-32.976562v-1.367188h-1.375c-12.457031 0-24.167969 4.847656-32.96875 13.65625-8.808594 8.804688-13.65625 20.519532-13.65625 32.972656zm0 0"/><path d="m240 376.003906h16v120h-16zm0 0"/><path d="m248 384.003906c-2.046875 0-4.09375-.785156-5.65625-2.34375l-4.6875-4.6875c-8.808594-8.800781-13.65625-20.515625-13.65625-32.96875 0-12.457031 4.847656-24.167968 13.65625-32.96875l4.6875-4.6875c3.128906-3.128906 8.1875-3.128906 11.3125 0l4.6875 4.6875c8.808594 8.800782 13.65625 20.511719 13.65625 32.96875 0 12.453125-4.847656 24.167969-13.65625 32.96875l-4.6875 4.6875c-1.558594 1.558594-3.605469 2.34375-5.65625 2.34375zm0-60.640625c-5.167969 5.65625-8 12.925781-8 20.640625 0 7.710938 2.832031 14.992188 8 20.640625 5.167969-5.65625 8-12.929687 8-20.640625 0-7.714844-2.832031-14.992187-8-20.640625zm0 0"/><path d="m72 464.003906h-9.375c-16.734375 0-32.464844-6.511718-44.28125-18.34375-11.832031-11.832031-18.34375-27.5625-18.34375-44.289062v-9.367188c0-4.417968 3.578125-8 8-8h9.378906c16.734375 0 32.460938 6.511719 44.277344 18.34375 11.832031 11.832032 18.34375 27.558594 18.34375 44.285156v9.371094c0 4.414063-3.574219 8-8 8zm-56-64v1.367188c0 12.457031 4.847656 24.167968 13.65625 32.976562s20.511719 13.65625 32.96875 13.65625h1.375v-1.371094c0-12.453124-4.847656-24.167968-13.65625-32.972656-8.804688-8.808594-20.511719-13.65625-32.964844-13.65625zm0 0"/><path d="m81.378906 464.003906h-9.378906c-4.421875 0-8-3.585937-8-8v-9.371094c0-16.726562 6.511719-32.453124 18.34375-44.285156 11.824219-11.832031 27.546875-18.34375 44.28125-18.34375h9.375c4.425781 0 8 3.582032 8 8v9.367188c0 16.726562-6.511719 32.457031-18.34375 44.289062-11.824219 11.832032-27.542969 18.34375-44.277344 18.34375zm-1.378906-16h1.378906c12.453125 0 24.167969-4.847656 32.964844-13.65625 8.808594-8.808594 13.65625-20.519531 13.65625-32.976562v-1.367188h-1.375c-12.457031 0-24.167969 4.847656-32.96875 13.65625-8.808594 8.804688-13.65625 20.519532-13.65625 32.972656zm0 0"/><path d="m64 376.003906h16v120h-16zm0 0"/><path d="m72 384.003906c-2.046875 0-4.09375-.785156-5.65625-2.34375l-4.6875-4.6875c-8.808594-8.800781-13.65625-20.515625-13.65625-32.96875 0-12.457031 4.847656-24.167968 13.65625-32.96875l4.6875-4.6875c3.128906-3.128906 8.1875-3.128906 11.3125 0l4.6875 4.6875c8.808594 8.800782 13.65625 20.511719 13.65625 32.96875 0 12.453125-4.847656 24.167969-13.65625 32.96875l-4.6875 4.6875c-1.558594 1.558594-3.605469 2.34375-5.65625 2.34375zm0-60.640625c-5.167969 5.648438-8 12.925781-8 20.640625 0 7.710938 2.832031 14.992188 8 20.640625 5.167969-5.65625 8-12.929687 8-20.640625 0-7.714844-2.832031-14.992187-8-20.640625zm0 0"/><path d="m376 496.003906h-8c-7.285156 0-14.152344-2.839844-19.3125-8l-4.6875-4.6875c-4.277344-4.273437-11.71875-4.28125-16 0l-4.6875 4.6875c-5.167969 5.160156-12.023438 8-19.3125 8h-8v-16h8c3.023438 0 5.855469-1.175781 8-3.320312l4.6875-4.679688c10.328125-10.320312 28.296875-10.320312 38.625 0l4.6875 4.6875c2.144531 2.136719 4.976562 3.3125 8 3.3125h8zm0 0"/><path d="m200 496.003906h-8c-7.285156 0-14.152344-2.839844-19.3125-8l-4.6875-4.6875c-4.277344-4.273437-11.71875-4.28125-16 0l-4.6875 4.6875c-5.167969 5.160156-12.023438 8-19.3125 8h-8v-16h8c3.023438 0 5.855469-1.175781 8-3.320312l4.6875-4.679688c10.328125-10.320312 28.296875-10.320312 38.625 0l4.6875 4.6875c2.144531 2.136719 4.976562 3.3125 8 3.3125h8zm0 0"/><path d="m464 304.003906h32v16h-32zm0 0"/><path d="m0 304.003906h32v16h-32zm0 0"/><path d="m288 352.003906h32v16h-32zm0 0"/><path d="m352 312.003906h32v16h-32zm0 0"/><path d="m176 352.003906h32v16h-32zm0 0"/><path d="m112 312.003906h32v16h-32zm0 0"/><path d="m360 112.003906c-17.648438 0-32-14.351562-32-32 0-4.410156-3.582031-8-8-8-4.414062 0-8 3.589844-8 8 0 13.230469-10.765625 24-24 24-13.230469 0-24-10.769531-24-24v-24h16v24c0 4.40625 3.585938 8 8 8 4.417969 0 8-3.59375 8-8 0-13.234375 10.769531-24 24-24 13.234375 0 24 10.765625 24 24 0 8.824219 7.175781 16 16 16s16-7.175781 16-16v-24h16v24c0 17.648438-14.351562 32-32 32zm0 0"/></svg>