<svg height="512pt" viewBox="0 -18 512 512" width="512pt" xmlns="http://www.w3.org/2000/svg"><path d="m368.242188 436.898438v31.832031h-222.8125v-31.832031zm0 0" fill="#cdd2e1"/><path d="m328.453125 373.238281 15.917969 63.660157h-175.070313l15.917969-63.660157zm0 0" fill="#f2f6fc"/><path d="m505.40625 7.1875v366.050781h-497v-366.050781zm-33.714844 334.222656v-302.390625h-429.710937v302.386719h429.710937zm0 0" fill="#cdd2e1"/><path d="m41.980469 39.019531h429.710937v302.386719h-429.710937zm0 0" fill="#b5efff"/><path d="m447.820312 39.019531h23.871094v302.386719h-23.871094zm0 0" fill="#80dbff"/><path d="m328.453125 373.238281h-23.871094l15.914063 63.660157h23.875zm0 0" fill="#dce1eb"/><path d="m296.625 293.664062c-47.746094 0-47.746094 0-47.746094 0v-31.832031s15.914063-39.789062 71.617188-39.789062h15.914062l31.832032 31.832031s-23.871094 39.789062-71.617188 39.789062zm0 0" fill="#c2fa93"/><path d="m353.429688 239.0625c-10.195313 11.742188-31.773438 30.726562-64.765626 30.726562-21.523437 0-33.292968 0-39.785156 0v23.875h47.746094c47.746094 0 71.617188-39.789062 71.617188-39.789062zm0 0" fill="#8edf78"/><path d="m248.878906 293.664062s0 0-47.746094 0c-47.746093 0-71.621093-39.789062-71.621093-39.789062l31.832031-31.832031h15.914062c55.703126 0 71.621094 39.789062 71.621094 39.789062zm0 0" fill="#c2fa93"/><path d="m431.902344 182.257812c0 17.585938-14.242188 31.828126-31.828125 31.828126-17.589844 0-31.832031-14.242188-31.832031-31.828126 0-11.777343 6.445312-21.886718 15.914062-27.457031v-75.992187h31.832031v75.992187c9.46875 5.570313 15.914063 15.679688 15.914063 27.457031zm0 0" fill="#f2f6fc"/><path d="m137.472656 78.808594v55.703125h-55.703125c0-30.796875 24.90625-55.703125 55.703125-55.703125zm0 0" fill="#cdd2e1"/><path d="m137.472656 78.808594c30.792969 0 55.703125 24.90625 55.703125 55.703125 0 15.4375-6.207031 29.28125-16.316406 39.386719l-39.386719-39.386719zm0 0" fill="#ffee6e"/><path d="m137.472656 134.511719 39.386719 39.386719c-10.105469 10.109374-23.949219 16.316406-39.386719 16.316406-30.796875 0-55.703125-24.910156-55.703125-55.703125zm0 0" fill="#f2f6fc"/><path d="m327.546875 71.617188h31.832031v15h-31.832031zm0 0" fill="#fff"/><path d="m512 381.050781v-381.050781h-383.394531v15h368.394531v351.050781h-482v-351.050781h89.734375v-15h-104.734375v381.050781h174.703125l-12.164063 48.660157h-25.519531v46.832031h237.816407v-46.832031h-25.519532l-12.164062-48.660157zm-152.164062 63.660157v16.832031h-207.8125v-16.832031zm-25.980469-15h-155.855469l12.164062-48.660157h131.527344zm0 0"/><path d="m478.285156 31.828125h-444.714844v317.390625h341.722657v-15h-119.820313v-32.746094h40.246094c51.398438 0 76.984375-41.65625 78.046875-43.425781l3.015625-5.023437-38.167969-38.167969h-19.023437c-40.582032 0-61.855469 19.46875-71.617188 32.667969-9.761718-13.199219-31.039062-32.667969-71.621094-32.667969h-19.023437l-38.167969 38.167969 3.015625 5.023437c1.0625 1.769531 26.648438 43.425781 78.050781 43.425781h40.246094v32.746094h-191.902344v-287.390625h414.714844v287.390625h-64.121094v15h79.121094zm-158.695312 198.027344h12.808594l25.160156 25.160156c-7.648438 9.785156-28.375 31.460937-61.839844 31.460937h-36.917969c10.292969-8.410156 33.816407-24.789062 60.789063-24.789062v-15c-27.144532 0-50.46875 13.367188-64.117188 23.355469v-6.269531c3.011719-6.066407 19.292969-33.917969 64.117188-33.917969zm-181.234375 25.1875 25.1875-25.1875h12.808593c44.996094 0 61.089844 27.71875 64.121094 33.90625v6.28125c-13.652344-9.992188-36.976562-23.355469-64.121094-23.355469v15c26.972657 0 50.496094 16.378906 60.792969 24.785156h-36.917969c-33.734374 0-54.273437-21.605468-61.871093-31.429687zm0 0"/><path d="m255.472656 222.355469v-125.128907l19.027344 19.027344 10.605469-10.609375-37.132813-37.132812-37.136718 37.132812 10.609374 10.609375 19.027344-19.027344v125.128907zm0 0"/><path d="m327.546875 103.449219h31.832031v15h-31.832031zm0 0"/><path d="m295.71875 135.28125h63.660156v15h-63.660156zm0 0"/><path d="m375.75 71.617188v79.480468c-10.039062 7.449219-15.914062 18.925782-15.914062 31.46875 0 21.6875 17.644531 39.332032 39.328124 39.332032 21.6875 0 39.332032-17.644532 39.332032-39.332032 0-12.542968-5.875-24.019531-15.914063-31.46875v-79.480468zm47.746094 110.949218c0 13.417969-10.914063 24.332032-24.332032 24.332032-13.414062 0-24.328124-10.914063-24.328124-24.332032 0-8.640625 4.566406-16.488281 12.21875-20.988281l3.695312-2.175781v-72.785156h16.832031v72.785156l3.695313 2.175781c7.652344 4.5 12.21875 12.347656 12.21875 20.988281zm0 0"/><path d="m73.359375 134.820312c0 34.851563 28.355469 63.207032 63.203125 63.207032 16.886719 0 32.757812-6.574219 44.695312-18.511719s18.511719-27.808594 18.511719-44.695313c0-34.847656-28.355469-63.203124-63.207031-63.203124-34.847656 0-63.203125 28.355468-63.203125 63.203124zm55.703125-47.617187v40.117187h-40.113281c3.226562-20.582031 19.53125-36.886718 40.113281-40.117187zm-40.113281 55.117187h44.507812l31.480469 31.480469c-8.191406 5.984375-18.03125 9.226563-28.371094 9.226563-24.03125-.003906-44.003906-17.675782-47.617187-40.707032zm95.820312-7.5c0 10.34375-3.242187 20.183594-9.226562 28.371094l-31.476563-31.476562v-44.507813c23.027344 3.613281 40.703125 23.585938 40.703125 47.613281zm0 0"/><g fill="#fff"><path d="m295.71875 167.109375h15.914062v15h-15.914062zm0 0"/><path d="m327.546875 167.109375h15.917969v15h-15.917969zm0 0"/></g></svg>