<svg height="512pt" viewBox="-45 0 511 512" width="512pt" xmlns="http://www.w3.org/2000/svg"><g fill-rule="evenodd"><path d="m8.058594 32.808594v446.382812c0 13.886719 11.355468 25.25 25.230468 25.25h355.441407c13.878906 0 25.234375-11.390625 25.234375-25.25v-357.226562c0-3.171875 0-6.09375-.027344-8.753906l-95.636719-105.652344h-285.011719c-13.875 0-25.230468 11.363281-25.230468 25.25zm0 0" fill="#eceff1"/><path d="m318.273438 87.957031c-.03125 13.886719 11.328124 25.253907 25.230468 25.253907h70.433594c-.339844-21.058594-2.75-27.945313-20.023438-46.707032l-32.765624-35.652344c-16.679688-18.109374-18.179688-23.292968-42.847657-23.292968zm0 0" fill="#90a4ae"/><path d="m118.078125 273.527344h-46.441406c-2.4375 0-4.417969 1.984375-4.417969 4.421875v27.035156c0 2.4375 1.980469 4.421875 4.417969 4.421875h46.441406c2.4375 0 4.417969-1.984375 4.417969-4.421875v-27.035156c0-2.4375-1.980469-4.421875-4.417969-4.421875zm0 0" fill="#8bc34a"/><path d="m118.078125 345.683594h-46.441406c-2.4375 0-4.417969 2.011718-4.417969 4.449218v27.007813c0 2.433594 1.980469 4.449219 4.417969 4.449219h46.441406c2.4375 0 4.417969-2.015625 4.417969-4.449219v-27.007813c0-2.4375-1.980469-4.449218-4.417969-4.449218zm0 0" fill="#ffd54f"/><path d="m118.078125 417.863281h-46.441406c-2.4375 0-4.417969 1.984375-4.417969 4.421875v27.007813c0 2.464843 1.980469 4.449219 4.417969 4.449219h46.441406c2.4375 0 4.417969-1.984376 4.417969-4.449219v-27.007813c0-2.4375-1.980469-4.421875-4.417969-4.421875zm0 0" fill="#f55a8e"/><path d="m378.761719 121.964844v357.226562c0 13.832032-11.328125 25.195313-25.148438 25.25h35.117188c13.878906 0 25.234375-11.390625 25.234375-25.25v-357.226562c0-3.171875 0-6.09375-.027344-8.753906h-35.230469c.054688 2.660156.054688 5.582031.054688 8.753906zm0 0" fill="#c4cccf"/><path d="m204.964844 231.101562c47.011718 0 85.355468-38.371093 85.355468-85.414062 0-47.046875-38.34375-85.390625-85.355468-85.390625-46.980469 0-85.328125 38.34375-85.328125 85.390625 0 47.042969 38.34375 85.414062 85.328125 85.414062zm0 0" fill="#ffd54f"/><path d="m193.777344 61.007812c41.828125 5.496094 74.140625 41.320313 74.140625 84.679688s-32.3125 79.179688-74.140625 84.679688c3.652344.480468 7.390625.738281 11.1875.738281 47.152344 0 85.355468-38.234375 85.355468-85.417969 0-47.160156-38.203124-85.386719-85.355468-85.386719-3.792969-.003906-7.53125.253907-11.1875.707031zm0 0" fill="#e6a235"/></g><path d="m421.472656 113.582031c.007813-.125.019532-.246093.019532-.375 0-.246093-.011719-.488281-.035157-.730469-.402343-22.160156-3.210937-30.691406-21.980469-51.085937l-32.769531-35.660156c-1.871093-2.03125-3.550781-3.898438-5.089843-5.613281-13.734376-15.28125-19.230469-20.117188-43.3125-20.117188-.003907 0-.003907 0-.003907 0h-285.011719c-18.078124 0-32.789062 14.71875-32.789062 32.808594v204.8125c0 4.175781 3.382812 7.558594 7.558594 7.558594 4.171875 0 7.554687-3.382813 7.554687-7.558594v-204.8125c0-9.757813 7.933594-17.695313 17.675781-17.695313h277.453126l-.027344 72.828125c-.019532 8.730469 3.386718 16.960938 9.585937 23.175782 6.210938 6.222656 14.453125 9.648437 23.207031 9.648437h62.898438v1.199219 357.226562c0 9.757813-7.929688 17.695313-17.675781 17.695313h-355.441407c-9.746093 0-17.675781-7.9375-17.675781-17.695313v-206.964844c0-4.175781-3.382812-7.558593-7.554687-7.558593-4.175782 0-7.558594 3.382812-7.558594 7.558593v206.964844c0 18.089844 14.710938 32.808594 32.789062 32.808594h355.441407c18.082031 0 32.789062-14.71875 32.789062-32.808594v-357.226562c0-3.007813-.007812-5.78125-.046875-8.382813zm-77.96875-7.929687c-4.707031 0-9.148437-1.851563-12.503906-5.210938-3.34375-3.351562-5.179688-7.78125-5.171875-12.480468l.027344-72.664063c11.75.71875 14.589843 3.878906 24.519531 14.925781 1.578125 1.753906 3.296875 3.667969 5.210938 5.742188l32.765624 35.65625c13.550782 14.726562 16.929688 20.703125 17.777344 34.03125zm0 0"/><path d="m219.917969 101.050781c-4.417969-2.410156-9.289063-3.371093-14.273438-3.371093-5.4375 0-10.621093 1.160156-15.261719 3.996093-4.136718 2.550781-7.5625 5.894531-9.941406 10.171875-2.097656 3.742188-3.425781 7.824219-3.425781 12.160156 0 2.238282.90625 4.164063 2.347656 5.835938 1.53125 1.816406 3.515625 2.777344 5.890625 2.777344 4.589844 0 6.628906-3.230469 7.167969-7.59375.933594-3.175782 3.171875-6.886719 5.320313-9.464844 1.957031-2.351562 4.984374-2.976562 7.902343-2.976562s5.4375.878906 7.476563 2.976562c1.980468 2.066406 2.886718 4.5625 2.886718 7.394531 0 1.445313-.28125 2.835938-.933593 4.140625-.648438 1.300782-1.441407 2.492188-2.433594 3.597656-1.53125 1.730469-3.257813 3.402344-4.929687 5.042969-2.179688 2.125-4.359376 4.394531-6.3125 6.746094-1.671876 2.039063-2.945313 4.363281-3.882813 6.828125-1.101563 2.890625-1.472656 6.09375-1.472656 9.15625 0 2.464844.480469 5.015625 2.210937 6.855469 1.472656 1.589843 3.339844 2.382812 5.492188 2.382812 4.53125 0 6.796875-2.945312 7.476562-7.171875.253906-1.332031.539063-2.71875.851563-4.078125.195312-.710937.453125-1.445312.792969-2.125.367187-.878906.933593-1.671875 1.5-2.410156.851562-1.105469 1.839843-2.183594 2.859374-3.175781 3.085938-3.113282 6.203126-6.261719 9.175782-9.492188 1.871094-2.070312 3.371094-4.421875 4.558594-6.941406 1.417968-2.949219 1.984374-6.207031 1.984374-9.46875 0-4.503906-1.132812-8.726562-3.398437-12.609375-2.324219-3.96875-5.578125-7-9.628906-9.183594zm0 0"/><path d="m204.34375 173.488281c-2.636719 0-4.84375 1.019531-6.601562 2.945313-1.839844 2.011718-2.660157 4.421875-2.660157 7.113281 0 2.808594.734375 5.472656 2.773438 7.484375 1.785156 1.726562 3.964843 2.691406 6.488281 2.691406 2.492188 0 4.585938-.992187 6.34375-2.75 2.007812-1.984375 2.746094-4.648437 2.746094-7.425781 0-2.664063-.792969-5.101563-2.578125-7.113281-1.726563-1.925782-3.9375-2.945313-6.511719-2.945313zm0 0"/><path d="m59.660156 277.949219v27.035156c0 6.605469 5.371094 11.980469 11.976563 11.980469h46.441406c6.605469 0 11.976563-5.375 11.976563-11.980469v-27.035156c0-6.605469-5.371094-11.976563-11.976563-11.976563h-46.441406c-6.605469 0-11.976563 5.371094-11.976563 11.976563zm15.113282 3.136719h40.167968v20.765624h-40.167968zm0 0"/><path d="m59.660156 377.140625c0 6.621094 5.371094 12.007813 11.976563 12.007813h46.441406c6.605469 0 11.976563-5.386719 11.976563-12.007813v-27.007813c0-6.621093-5.371094-12.007812-11.976563-12.007812h-46.441406c-6.605469 0-11.976563 5.386719-11.976563 12.007812zm15.113282-23.902344h40.167968v20.792969h-40.167968zm0 0"/><path d="m59.660156 449.292969c0 6.621093 5.371094 12.007812 11.976563 12.007812h46.441406c6.605469 0 11.976563-5.386719 11.976563-12.007812v-27.007813c0-6.605468-5.371094-11.976562-11.976563-11.976562h-46.441406c-6.605469 0-11.976563 5.371094-11.976563 11.976562zm15.113282-23.871094h40.167968v20.761719h-40.167968zm0 0"/><path d="m361.742188 284.789062h-198.972657c-4.175781 0-7.558593 3.382813-7.558593 7.558594 0 4.171875 3.382812 7.554688 7.558593 7.554688h198.972657c4.175781 0 7.558593-3.382813 7.558593-7.554688 0-4.175781-3.382812-7.558594-7.558593-7.558594zm0 0"/><path d="m361.742188 356.0625h-81.84375c-4.171876 0-7.554688 3.386719-7.554688 7.558594 0 4.175781 3.382812 7.558594 7.554688 7.558594h81.84375c4.175781 0 7.558593-3.382813 7.558593-7.558594 0-4.175782-3.382812-7.558594-7.558593-7.558594zm0 0"/><path d="m162.769531 371.179688h82.523438c4.171875 0 7.554687-3.382813 7.554687-7.558594 0-4.175782-3.382812-7.558594-7.554687-7.558594h-82.523438c-4.175781 0-7.558593 3.386719-7.558593 7.558594 0 4.175781 3.382812 7.558594 7.558593 7.558594zm0 0"/><path d="m162.769531 443.359375h198.972657c4.175781 0 7.558593-3.382813 7.558593-7.554687 0-4.175782-3.382812-7.558594-7.558593-7.558594h-198.972657c-4.175781 0-7.558593 3.386718-7.558593 7.558594 0 4.171874 3.382812 7.554687 7.558593 7.554687zm0 0"/><path d="m204.964844 52.742188c-51.21875 0-92.882813 41.695312-92.882813 92.945312 0 51.265625 41.664063 92.972656 92.882813 92.972656 51.230468 0 92.914062-41.707031 92.914062-92.972656 0-51.25-41.683594-92.945312-92.914062-92.945312zm0 170.804687c-42.882813 0-77.769532-34.929687-77.769532-77.859375 0-42.917969 34.886719-77.832031 77.769532-77.832031 42.898437 0 77.796875 34.914062 77.796875 77.832031 0 42.929688-34.898438 77.859375-77.796875 77.859375zm0 0"/></svg>