<?xml version="1.0" encoding="iso-8859-1"?>
<!-- Generator: Adobe Illustrator 19.0.0, SVG Export Plug-In . SVG Version: 6.00 Build 0)  -->
<svg version="1.1" id="Capa_1" xmlns="http://www.w3.org/2000/svg" xmlns:xlink="http://www.w3.org/1999/xlink" x="0px" y="0px"
	 viewBox="0 0 512 512" style="enable-background:new 0 0 512 512;" xml:space="preserve">
<rect x="7.515" y="79.656" style="fill:#E6608D;" width="496.971" height="32.063"/>
<rect x="7.515" y="95.687" style="fill:#D4506F;" width="496.971" height="16.031"/>
<rect x="31.562" y="111.718" style="fill:#F0F0F1;" width="448.877" height="272.532"/>
<rect x="31.562" y="111.718" style="fill:#E1E0E4;" width="448.877" height="16.031"/>
<rect x="175.843" y="231.953" style="fill:#CDBCE8;" width="32.063" height="96.188"/>
<rect x="239.969" y="207.906" style="fill:#BA9DD4;" width="32.063" height="120.235"/>
<rect x="304.094" y="175.843" style="fill:#AD7DC9;" width="32.063" height="152.297"/>
<path d="M504.485,72.141H353.961l-90.447-45.223V7.515C263.515,3.364,260.15,0,256,0c-4.15,0-7.515,3.364-7.515,7.515v19.403
	l-90.447,45.223H7.515C3.365,72.141,0,75.504,0,79.656v32.063c0,4.151,3.365,7.515,7.515,7.515h16.532V384.25
	c0,4.151,3.365,7.515,7.515,7.515h216.924v68.511l-59.636,37.865c-3.457,2.195-4.511,6.915-2.317,10.373
	c2.195,3.457,6.915,4.508,10.372,2.317l51.581-32.751v26.406c0,4.151,3.365,7.515,7.515,7.515c4.15,0,7.515-3.364,7.515-7.515
	v-26.52l52.628,32.892c3.754,2.346,8.846,0.855,10.76-3.124c1.637-3.405,0.407-7.621-2.794-9.621l-60.593-37.871v-68.477h116.394
	c4.15,0,7.515-3.364,7.515-7.515s-3.365-7.515-7.515-7.515H39.076V119.233h433.847v257.503h-56.277c-4.15,0-7.515,3.364-7.515,7.515
	s3.365,7.515,7.515,7.515h63.792c4.15,0,7.515-3.364,7.515-7.515V119.233h16.532c4.15,0,7.515-3.364,7.515-7.515V79.656
	C512,75.504,508.635,72.141,504.485,72.141z M320.356,72.141H263.49c0.011-0.166,0.025-0.332,0.025-0.501V43.72L320.356,72.141z
	 M248.485,43.72v27.92c0,0.169,0.014,0.335,0.025,0.501h-56.866L248.485,43.72z M496.971,104.204H15.029V87.17h481.941V104.204z"/>
<path d="M384.25,320.626h-40.579V175.843c0-4.151-3.365-7.515-7.515-7.515h-32.063c-4.15,0-7.515,3.364-7.515,7.515v144.783h-17.033
	v-112.72c0-4.151-3.365-7.515-7.515-7.515h-32.063c-4.15,0-7.515,3.364-7.515,7.515v112.72h-17.033v-88.673
	c0-4.151-3.365-7.515-7.515-7.515h-32.063c-4.15,0-7.515,3.364-7.515,7.515v88.673h-33.065V159.812c0-4.151-3.365-7.515-7.515-7.515
	c-4.15,0-7.515,3.364-7.515,7.515v168.329c0,4.151,3.365,7.515,7.515,7.515H384.25c4.15,0,7.515-3.364,7.515-7.515
	S388.401,320.626,384.25,320.626z M183.358,320.626v-81.159h17.033v81.159H183.358z M247.483,320.626V215.421h17.033v105.205
	H247.483z M311.609,320.626V183.358h17.033v137.268H311.609z"/>
<g>
</g>
<g>
</g>
<g>
</g>
<g>
</g>
<g>
</g>
<g>
</g>
<g>
</g>
<g>
</g>
<g>
</g>
<g>
</g>
<g>
</g>
<g>
</g>
<g>
</g>
<g>
</g>
<g>
</g>
</svg>
