<?xml version="1.0" encoding="iso-8859-1"?>
<!-- Generator: Adobe Illustrator 19.0.0, SVG Export Plug-In . SVG Version: 6.00 Build 0)  -->
<svg version="1.1" id="Capa_1" xmlns="http://www.w3.org/2000/svg" xmlns:xlink="http://www.w3.org/1999/xlink" x="0px" y="0px"
	 viewBox="0 0 512 512" style="enable-background:new 0 0 512 512;" xml:space="preserve">
<path style="fill:#63CFF1;" d="M453.394,73.189v426.286c0,2.767-2.243,5.01-5.01,5.01H63.615c-2.767,0-5.01-2.243-5.01-5.01V12.524
	c0-2.767,2.243-5.01,5.01-5.01h325.903L453.394,73.189z"/>
<path style="fill:#33BDDD;" d="M453.396,73.192v426.285c0,2.767-2.243,5.01-5.01,5.01h-35.56c2.765,0,5.01-2.244,5.01-5.01V75.226
	c0-1.305-0.509-2.558-1.419-3.493L353.95,7.513h35.57L453.396,73.192z"/>
<path style="fill:#25A1D8;" d="M453.394,73.189L389.518,7.515V68.18c0,2.767,2.243,5.01,5.01,5.01L453.394,73.189L453.394,73.189z"
	/>
<g>
	<path style="fill:#E89838;" d="M58.605,347.033l115.201-72.245c1.864-1.169,4.273-0.985,5.938,0.454L311.987,389.57H58.605V347.033
		z"/>
	<path style="fill:#E89838;" d="M244.465,331.195l141.707-98.782c1.949-1.359,4.584-1.161,6.309,0.472l60.913,57.674v99.01H311.987
		L244.465,331.195z"/>
</g>
<g>
	<path style="fill:#D8852B;" d="M311.989,389.571h-35.56L156.334,285.748l17.474-10.961c1.864-1.172,4.268-0.982,5.932,0.451
		L311.989,389.571z"/>
	<path style="fill:#D8852B;" d="M453.396,290.557v99.014H418.12v-90.3c0-1.397-0.583-2.73-1.608-3.678L363.5,247.5l22.675-15.086
		c1.944-1.363,4.579-1.162,6.302,0.471L453.396,290.557z"/>
</g>
<path style="fill:#E6EAEE;" d="M448.394,504.485H63.605c-2.761,0-5-2.239-5-5V389.57h394.789v109.915
	C453.394,502.246,451.155,504.485,448.394,504.485z"/>
<path style="fill:#34D6C1;" d="M448.394,504.485H63.605c-2.761,0-5-2.239-5-5V389.57h394.789v109.915
	C453.394,502.246,451.155,504.485,448.394,504.485z"/>
<path style="fill:#1AC4AE;" d="M448.384,504.485h-31.068V390.407l36.078-0.837v109.905
	C453.394,502.242,451.151,504.485,448.384,504.485z"/>
<circle style="fill:#FFD071;" cx="366.55" cy="149.07" r="33.519"/>
<path style="fill:#F7B657;" d="M400.072,149.08c0,18.506-15.009,33.516-33.526,33.516c-3.046,0-6.002-0.411-8.807-1.172
	c14.238-3.868,24.708-16.883,24.708-32.343c0-15.47-10.47-28.486-24.708-32.353c2.806-0.762,5.761-1.172,8.807-1.172
	C385.062,115.555,400.072,130.564,400.072,149.08z"/>
<path d="M58.605,239.028c4.151,0,7.515-3.365,7.515-7.515V15.03h315.884v58.159c0,4.15,3.364,7.515,7.515,7.515h56.361v73.848
	c0,4.15,3.364,7.515,7.515,7.515s7.515-3.365,7.515-7.515V73.189c0-0.067-0.008-0.132-0.01-0.199
	c-0.002-0.083-0.007-0.166-0.012-0.249c-0.017-0.289-0.048-0.575-0.098-0.857c-0.006-0.036-0.009-0.072-0.016-0.108
	c-0.06-0.313-0.145-0.619-0.243-0.921c-0.025-0.076-0.052-0.151-0.08-0.227c-0.1-0.277-0.214-0.548-0.346-0.811
	c-0.015-0.029-0.026-0.059-0.041-0.087c-0.148-0.285-0.319-0.558-0.504-0.823c-0.046-0.066-0.093-0.131-0.142-0.196
	c-0.197-0.265-0.406-0.522-0.638-0.762L394.905,2.275c-0.236-0.243-0.492-0.461-0.756-0.668c-0.066-0.052-0.132-0.102-0.199-0.151
	c-0.262-0.192-0.532-0.372-0.815-0.528c-0.006-0.003-0.011-0.007-0.017-0.011c-0.287-0.156-0.586-0.287-0.891-0.405
	c-0.079-0.031-0.158-0.059-0.238-0.087c-0.281-0.098-0.567-0.183-0.859-0.247c-0.029-0.006-0.058-0.016-0.087-0.022
	c-0.315-0.065-0.636-0.105-0.96-0.129c-0.086-0.007-0.172-0.01-0.258-0.013C389.723,0.011,389.621,0,389.518,0H63.615
	c-6.906,0-12.524,5.618-12.524,12.525v218.989C51.091,235.664,54.455,239.028,58.605,239.028z M397.033,26.019l4.166,4.283
	l34.404,35.372h-38.569L397.033,26.019L397.033,26.019z"/>
<path d="M453.394,201.142c-4.151,0-7.515,3.365-7.515,7.515v64.439l-48.231-45.667c-4.293-4.064-10.926-4.558-15.774-1.18
	l-136.914,95.44l-60.3-52.131c-4.19-3.622-10.155-4.079-14.847-1.137L66.12,333.45v-49.98c0-4.15-3.364-7.515-7.515-7.515
	s-7.515,3.365-7.515,7.515v63.563v42.537v109.905c0,6.906,5.618,12.525,12.524,12.525h384.77c6.906,0,12.525-5.618,12.525-12.525
	V389.57v-99.01v-81.903C460.909,204.507,457.545,201.142,453.394,201.142z M66.12,351.191l110.109-69.053l63.312,54.734
	c0.003,0.003,0.006,0.006,0.009,0.008l52.255,45.175H66.12V351.191z M445.88,496.97H66.12v-99.885h245.867H445.88V496.97z
	 M445.88,382.056H314.786l-58.094-50.224l132.104-92.087l57.083,54.048L445.88,382.056L445.88,382.056z"/>
<path d="M407.583,149.075c0-22.626-18.407-41.034-41.034-41.034s-41.034,18.408-41.034,41.034s18.407,41.034,41.034,41.034
	S407.583,171.702,407.583,149.075z M340.545,149.075c0-14.339,11.665-26.004,26.004-26.004s26.004,11.665,26.004,26.004
	s-11.665,26.005-26.004,26.005S340.545,163.414,340.545,149.075z"/>
<g>
</g>
<g>
</g>
<g>
</g>
<g>
</g>
<g>
</g>
<g>
</g>
<g>
</g>
<g>
</g>
<g>
</g>
<g>
</g>
<g>
</g>
<g>
</g>
<g>
</g>
<g>
</g>
<g>
</g>
</svg>
